<svg width="347" height="95" viewBox="0 0 347 95" fill="none" xmlns="http://www.w3.org/2000/svg">
<path d="M-101.375 8.3125L-101.953 9.12831L-101.946 9.13316L-101.375 8.3125ZM-99.25 39.6875L-99.8462 38.8846L-99.85 38.8875L-99.25 39.6875ZM-111.375 45.125L-111.502 44.133L-112.375 44.2445V45.125H-111.375ZM-111.375 45.3125H-112.375V46.2487L-111.441 46.3103L-111.375 45.3125ZM-141.75 76.75H-142.75V77.75H-141.75V76.75ZM-114.625 74.4375L-115.058 73.5361L-115.063 73.5384L-114.625 74.4375ZM-115.375 55.9375L-115.797 56.844L-115.785 56.8496L-115.375 55.9375ZM-141.75 53.375V52.375H-142.75V53.375H-141.75ZM-141.75 38.625H-142.75V39.625H-141.75V38.625ZM-118.5 35.8125L-118.87 34.8835L-118.873 34.8846L-118.5 35.8125ZM-115.375 20.0625L-115.907 20.909L-115.9 20.914L-115.891 20.9188L-115.375 20.0625ZM-141.75 17.625V16.625H-142.75V17.625H-141.75ZM-155 91C-156.528 91 -157.488 90.6406 -158.066 90.0986C-158.632 89.5679 -159 88.7038 -159 87.3125H-161C-161 89.0462 -160.535 90.5258 -159.434 91.5577C-158.345 92.5781 -156.805 93 -155 93V91ZM-159 87.3125V7.0625H-161V87.3125H-159ZM-159 7.0625C-159 5.67125 -158.632 4.80705 -158.066 4.27641C-157.488 3.73439 -156.528 3.375 -155 3.375V1.375C-156.805 1.375 -158.345 1.79686 -159.434 2.81734C-160.535 3.8492 -161 5.32875 -161 7.0625H-159ZM-155 3.375H-133.75V1.375H-155V3.375ZM-133.75 3.375C-125.786 3.375 -119.153 3.86801 -113.837 4.84297C-108.507 5.82034 -104.576 7.26911 -101.953 9.12828L-100.797 7.49672C-103.758 5.39755 -108.013 3.87758 -113.476 2.87578C-118.951 1.87157 -125.714 1.375 -133.75 1.375V3.375ZM-101.946 9.13316C-96.6437 12.8254 -93.9375 18.5265 -93.9375 26.4375H-91.9375C-91.9375 18.0152 -94.8563 11.6329 -100.804 7.49184L-101.946 9.13316ZM-93.9375 26.4375C-93.9375 31.8621 -95.917 35.967 -99.8462 38.8847L-98.6538 40.4903C-94.1663 37.158 -91.9375 32.4296 -91.9375 26.4375H-93.9375ZM-99.85 38.8875C-103.921 41.9407 -107.803 43.6609 -111.502 44.133L-111.248 46.117C-107.114 45.5891 -102.912 43.6843 -98.65 40.4875L-99.85 38.8875ZM-112.375 45.125V45.3125H-110.375V45.125H-112.375ZM-111.441 46.3103C-107.914 46.5429 -103.635 48.3429 -98.573 51.882L-97.427 50.243C-102.615 46.6155 -107.253 44.5821 -111.309 44.3147L-111.441 46.3103ZM-98.573 51.882C-93.7299 55.2683 -91.3125 60.017 -91.3125 66.25H-89.3125C-89.3125 59.3997 -92.0201 54.0234 -97.427 50.243L-98.573 51.882ZM-91.3125 66.25C-91.3125 73.5955 -94.2844 79.5126 -100.293 84.0788L-99.0824 85.6712C-92.5906 80.7374 -89.3125 74.2379 -89.3125 66.25H-91.3125ZM-100.293 84.0788C-106.274 88.6251 -116.31 91 -130.625 91V93C-116.19 93 -105.601 90.6249 -99.0824 85.6712L-100.293 84.0788ZM-130.625 91H-155V93H-130.625V91ZM-141.75 77.75H-132.625V75.75H-141.75V77.75ZM-132.625 77.75C-128.183 77.75 -124.429 77.5564 -121.373 77.1637C-118.33 76.7729 -115.914 76.1772 -114.187 75.3366L-115.063 73.5384C-116.503 74.2394 -118.67 74.8 -121.627 75.18C-124.571 75.5582 -128.233 75.75 -132.625 75.75V77.75ZM-114.192 75.3388C-110.522 73.5754 -108.812 70.0086 -108.812 65.0625H-110.812C-110.812 69.533 -112.311 72.2163 -115.058 73.5362L-114.192 75.3388ZM-108.812 65.0625C-108.812 62.7144 -109.306 60.6595 -110.349 58.9482C-111.396 57.2315 -112.954 55.9294 -114.965 55.0254L-115.785 56.8496C-114.088 57.6123 -112.865 58.6643 -112.057 59.9893C-111.246 61.3197 -110.812 62.9939 -110.812 65.0625H-108.812ZM-114.953 55.0311C-118.825 53.2269 -124.757 52.375 -132.625 52.375V54.375C-124.826 54.375 -119.258 55.2314 -115.797 56.8439L-114.953 55.0311ZM-132.625 52.375H-141.75V54.375H-132.625V52.375ZM-142.75 53.375V76.75H-140.75V53.375H-142.75ZM-141.75 39.625H-133.562V37.625H-141.75V39.625ZM-133.562 39.625C-128.069 39.625 -122.92 38.6662 -118.127 36.7404L-118.873 34.8846C-123.413 36.7088 -128.306 37.625 -133.562 37.625V39.625ZM-118.13 36.7415C-115.67 35.762 -113.741 34.4778 -112.425 32.8468C-111.096 31.2002 -110.438 29.2564 -110.438 27.0625H-112.438C-112.438 28.8269 -112.956 30.3206 -113.981 31.5907C-115.019 32.8764 -116.621 33.988 -118.87 34.8835L-118.13 36.7415ZM-110.438 27.0625C-110.438 23.6312 -111.931 20.9718 -114.859 19.2062L-115.891 20.9188C-113.569 22.3198 -112.438 24.3271 -112.438 27.0625H-110.438ZM-114.843 19.216C-116.325 18.2834 -118.668 17.6532 -121.727 17.2432C-124.819 16.8288 -128.769 16.625 -133.562 16.625V18.625C-128.814 18.625 -124.962 18.8275 -121.992 19.2255C-118.989 19.6281 -117.008 20.2166 -115.907 20.909L-114.843 19.216ZM-133.562 16.625H-141.75V18.625H-133.562V16.625ZM-142.75 17.625V38.625H-140.75V17.625H-142.75ZM-8.6875 14L-9.44159 14.6568L-9.43958 14.6591L-8.6875 14ZM-8.6875 80.25L-9.44305 79.5949L-9.44505 79.5972L-8.6875 80.25ZM-55.5 76.5H-56.5V77.5H-55.5V76.5ZM-23.6875 69.3125L-22.9033 69.933L-22.9007 69.9297L-23.6875 69.3125ZM-23.6875 24.9375L-24.4717 25.558L-24.469 25.5614L-23.6875 24.9375ZM-55.5 17.75V16.75H-56.5V17.75H-55.5ZM-69.375 91C-70.6608 91 -71.4464 90.6588 -71.9252 90.1458C-72.4162 89.6198 -72.75 88.7374 -72.75 87.3125H-74.75C-74.75 89.0126 -74.3547 90.474 -73.3873 91.5104C-72.4078 92.5599 -71.0058 93 -69.375 93V91ZM-72.75 87.3125V7.0625H-74.75V87.3125H-72.75ZM-72.75 7.0625C-72.75 5.63765 -72.4162 4.75522 -71.9252 4.22919C-71.4464 3.71616 -70.6608 3.375 -69.375 3.375V1.375C-71.0058 1.375 -72.4078 1.81509 -73.3873 2.86456C-74.3547 3.90103 -74.75 5.36235 -74.75 7.0625H-72.75ZM-69.375 3.375H-47.5625V1.375H-69.375V3.375ZM-47.5625 3.375C-28.4556 3.375 -15.8904 7.25262 -9.44157 14.6568L-7.93343 13.3432C-14.9846 5.24738 -28.3361 1.375 -47.5625 1.375V3.375ZM-9.43958 14.6591C-2.86024 22.1668 0.5 32.9196 0.5 47.0625H2.5C2.5 32.6221 -0.931427 21.3332 -7.93542 13.3409L-9.43958 14.6591ZM0.5 47.0625C0.5 61.2046 -2.85991 72.0021 -9.44305 79.5949L-7.93195 80.9051C-0.931763 72.8312 2.5 61.5038 2.5 47.0625H0.5ZM-9.44505 79.5972C-15.8944 87.0816 -28.458 91 -47.5625 91V93C-28.3337 93 -14.9806 89.085 -7.92995 80.9028L-9.44505 79.5972ZM-47.5625 91H-69.375V93H-47.5625V91ZM-55.5 77.5H-48.75V75.5H-55.5V77.5ZM-48.75 77.5C-42.239 77.5 -36.82 76.8972 -32.5212 75.6644C-28.2251 74.4323 -24.9733 72.5489 -22.9033 69.933L-24.4717 68.692C-26.1934 70.8678 -29.0145 72.5781 -33.0725 73.7419C-37.1279 74.9049 -42.3443 75.5 -48.75 75.5V77.5ZM-22.9007 69.9297C-18.9078 64.8399 -17 57.1564 -17 47.0625H-19C-19 56.9686 -20.8838 64.1184 -24.4743 68.6953L-22.9007 69.9297ZM-17 47.0625C-17 36.9707 -18.907 29.3234 -22.906 24.3136L-24.469 25.5614C-20.8847 30.0516 -19 37.1543 -19 47.0625H-17ZM-22.9033 24.317C-24.9733 21.7011 -28.2251 19.8177 -32.5212 18.5856C-36.82 17.3528 -42.239 16.75 -48.75 16.75V18.75C-42.3443 18.75 -37.1279 19.3451 -33.0725 20.5081C-29.0145 21.6719 -26.1934 23.3822 -24.4717 25.558L-22.9033 24.317ZM-48.75 16.75H-55.5V18.75H-48.75V16.75ZM-56.5 17.75V76.5H-54.5V17.75H-56.5ZM75.5 8.3125L74.9216 9.12831L74.9286 9.13316L75.5 8.3125ZM77.625 39.6875L77.0288 38.8846L77.025 38.8875L77.625 39.6875ZM65.5 45.125L65.3734 44.133L64.5 44.2445V45.125H65.5ZM65.5 45.3125H64.5V46.2487L65.4342 46.3103L65.5 45.3125ZM35.125 76.75H34.125V77.75H35.125V76.75ZM62.25 74.4375L61.8169 73.5361L61.8123 73.5384L62.25 74.4375ZM61.5 55.9375L61.0776 56.844L61.0901 56.8496L61.5 55.9375ZM35.125 53.375V52.375H34.125V53.375H35.125ZM35.125 38.625H34.125V39.625H35.125V38.625ZM58.375 35.8125L58.005 34.8835L58.0022 34.8846L58.375 35.8125ZM61.5 20.0625L60.9675 20.909L60.9755 20.914L60.9835 20.9188L61.5 20.0625ZM35.125 17.625V16.625H34.125V17.625H35.125ZM21.875 91C20.347 91 19.3871 90.6406 18.8089 90.0986C18.2429 89.5679 17.875 88.7038 17.875 87.3125H15.875C15.875 89.0462 16.3404 90.5258 17.4411 91.5577C18.5296 92.5781 20.0697 93 21.875 93V91ZM17.875 87.3125V7.0625H15.875V87.3125H17.875ZM17.875 7.0625C17.875 5.67125 18.2429 4.80705 18.8089 4.27641C19.3871 3.73439 20.347 3.375 21.875 3.375V1.375C20.0697 1.375 18.5296 1.79686 17.4411 2.81734C16.3404 3.8492 15.875 5.32875 15.875 7.0625H17.875ZM21.875 3.375H43.125V1.375H21.875V3.375ZM43.125 3.375C51.0893 3.375 57.7223 3.86801 63.0384 4.84297C68.3676 5.82034 72.2992 7.26911 74.9216 9.12828L76.0784 7.49672C73.1174 5.39755 68.8616 3.87758 63.3991 2.87578C57.9236 1.87157 51.1607 1.375 43.125 1.375V3.375ZM74.9286 9.13316C80.2313 12.8254 82.9375 18.5265 82.9375 26.4375H84.9375C84.9375 18.0152 82.0187 11.6329 76.0714 7.49184L74.9286 9.13316ZM82.9375 26.4375C82.9375 31.8621 80.958 35.967 77.0288 38.8847L78.2212 40.4903C82.7087 37.158 84.9375 32.4296 84.9375 26.4375H82.9375ZM77.025 38.8875C72.954 41.9407 69.072 43.6609 65.3734 44.133L65.6266 46.117C69.7613 45.5891 73.9626 43.6843 78.225 40.4875L77.025 38.8875ZM64.5 45.125V45.3125H66.5V45.125H64.5ZM65.4342 46.3103C68.9613 46.5429 73.2401 48.3429 78.302 51.882L79.448 50.243C74.2599 46.6155 69.6221 44.5821 65.5658 44.3147L65.4342 46.3103ZM78.302 51.882C83.1451 55.2683 85.5625 60.017 85.5625 66.25H87.5625C87.5625 59.3997 84.8549 54.0234 79.448 50.243L78.302 51.882ZM85.5625 66.25C85.5625 73.5955 82.5906 79.5126 76.5824 84.0788L77.7926 85.6712C84.2844 80.7374 87.5625 74.2379 87.5625 66.25H85.5625ZM76.5824 84.0788C70.6005 88.6251 60.5652 91 46.25 91V93C60.6848 93 71.2745 90.6249 77.7926 85.6712L76.5824 84.0788ZM46.25 91H21.875V93H46.25V91ZM35.125 77.75H44.25V75.75H35.125V77.75ZM44.25 77.75C48.6918 77.75 52.4458 77.5564 55.5024 77.1637C58.5445 76.7729 60.961 76.1772 62.6877 75.3366L61.8123 73.5384C60.3723 74.2394 58.2055 74.8 55.2476 75.18C52.3042 75.5582 48.6415 75.75 44.25 75.75V77.75ZM62.6831 75.3388C66.353 73.5754 68.0625 70.0086 68.0625 65.0625H66.0625C66.0625 69.533 64.5637 72.2163 61.8169 73.5362L62.6831 75.3388ZM68.0625 65.0625C68.0625 62.7144 67.5689 60.6595 66.5257 58.9482C65.4792 57.2315 63.9213 55.9294 61.9099 55.0254L61.0901 56.8496C62.787 57.6123 64.0104 58.6643 64.818 59.9893C65.629 61.3197 66.0625 62.9939 66.0625 65.0625H68.0625ZM61.9223 55.0311C58.05 53.2269 52.1177 52.375 44.25 52.375V54.375C52.049 54.375 57.6166 55.2314 61.0777 56.8439L61.9223 55.0311ZM44.25 52.375H35.125V54.375H44.25V52.375ZM34.125 53.375V76.75H36.125V53.375H34.125ZM35.125 39.625H43.3125V37.625H35.125V39.625ZM43.3125 39.625C48.8064 39.625 53.9547 38.6662 58.7478 36.7404L58.0022 34.8846C53.462 36.7088 48.5686 37.625 43.3125 37.625V39.625ZM58.745 36.7415C61.2048 35.762 63.1336 34.4778 64.45 32.8468C65.7791 31.2002 66.4375 29.2564 66.4375 27.0625H64.4375C64.4375 28.8269 63.9188 30.3206 62.8937 31.5907C61.856 32.8764 60.2535 33.988 58.005 34.8835L58.745 36.7415ZM66.4375 27.0625C66.4375 23.6312 64.9437 20.9718 62.0165 19.2062L60.9835 20.9188C63.3063 22.3198 64.4375 24.3271 64.4375 27.0625H66.4375ZM62.0325 19.216C60.5497 18.2834 58.2073 17.6532 55.1485 17.2432C52.056 16.8288 48.1061 16.625 43.3125 16.625V18.625C48.0605 18.625 51.9128 18.8275 54.8828 19.2255C57.8864 19.6281 59.8669 20.2166 60.9675 20.909L62.0325 19.216ZM43.3125 16.625H35.125V18.625H43.3125V16.625ZM34.125 17.625V38.625H36.125V17.625H34.125ZM109.625 81.4375L108.873 82.0968L109.625 81.4375ZM123.562 71.125L122.731 71.6812L122.736 71.6883L123.562 71.125ZM159.125 71.125L158.297 70.5646L158.296 70.566L159.125 71.125ZM159.125 23.3125L158.294 23.8687L158.299 23.8758L159.125 23.3125ZM123.562 23.3125L122.734 22.7521L122.733 22.7535L123.562 23.3125ZM99.5 47.1875C99.5 32.9858 103.161 21.8266 110.377 13.5968L108.873 12.2782C101.256 20.9651 97.5 32.6392 97.5 47.1875H99.5ZM110.377 13.5968C117.562 5.40234 127.843 1.25 141.375 1.25V-0.75C127.407 -0.75 116.521 3.55599 108.873 12.2782L110.377 13.5968ZM141.375 1.25C154.907 1.25 165.188 5.40234 172.373 13.5968L173.877 12.2782C166.229 3.55599 155.343 -0.75 141.375 -0.75V1.25ZM172.373 13.5968C179.589 21.8266 183.25 32.9858 183.25 47.1875H185.25C185.25 32.6392 181.494 20.9651 173.877 12.2782L172.373 13.5968ZM183.25 47.1875C183.25 61.3892 179.589 72.5484 172.373 80.7782L173.877 82.0968C181.494 73.4099 185.25 61.7358 185.25 47.1875H183.25ZM172.373 80.7782C165.188 88.9727 154.907 93.125 141.375 93.125V95.125C155.343 95.125 166.229 90.819 173.877 82.0968L172.373 80.7782ZM141.375 93.125C127.843 93.125 117.562 88.9727 110.377 80.7782L108.873 82.0968C116.521 90.819 127.407 95.125 141.375 95.125V93.125ZM110.377 80.7782C103.161 72.5484 99.5 61.3892 99.5 47.1875H97.5C97.5 61.7358 101.256 73.4099 108.873 82.0968L110.377 80.7782ZM117 47.1875C117 57.6994 118.867 65.9063 122.731 71.6811L124.394 70.5689C120.841 65.2603 119 57.509 119 47.1875H117ZM122.736 71.6883C126.715 77.5236 133.002 80.375 141.375 80.375V78.375C133.498 78.375 127.91 75.7264 124.389 70.5617L122.736 71.6883ZM141.375 80.375C149.747 80.375 156.017 77.5235 159.954 71.684L158.296 70.566C154.816 75.7265 149.253 78.375 141.375 78.375V80.375ZM159.953 71.6854C163.862 65.9098 165.75 57.701 165.75 47.1875H163.75C163.75 57.5074 161.888 65.2569 158.297 70.5646L159.953 71.6854ZM165.75 47.1875C165.75 36.6748 163.862 28.4848 159.951 22.7492L158.299 23.8758C161.888 29.1402 163.75 36.8668 163.75 47.1875H165.75ZM159.956 22.7564C156.02 16.8746 149.75 14 141.375 14V16C149.25 16 154.813 18.6671 158.294 23.8686L159.956 22.7564ZM141.375 14C132.999 14 126.712 16.8745 122.734 22.7521L124.391 23.8729C127.913 18.6672 133.501 16 141.375 16V14ZM122.733 22.7535C118.867 28.4882 117 36.6764 117 47.1875H119C119 36.8652 120.842 29.1368 124.392 23.8715L122.733 22.7535ZM200.688 85.3125L200.083 86.1094L200.085 86.1105L200.688 85.3125ZM198.812 79.375L199.645 79.9297L199.646 79.928L198.812 79.375ZM203.625 72.125L202.793 71.5703L202.792 71.572L203.625 72.125ZM210.562 71.75L209.99 72.5698L209.991 72.5706L210.562 71.75ZM219.688 76.8125L219.265 77.7188L219.277 77.7242L219.688 76.8125ZM244.375 59.25L244.918 58.4104L244.375 59.25ZM240 56.9375L240.385 56.0144L240.382 56.0131L240 56.9375ZM230.062 53.75L229.798 54.7146L229.81 54.7177L230.062 53.75ZM218.312 49.875L218.673 48.9424L218.672 48.9419L218.312 49.875ZM248.25 2.5L247.973 3.46095L247.975 3.46152L248.25 2.5ZM260.125 8.125L259.48 8.88929L259.481 8.89022L260.125 8.125ZM262.062 14.125L261.26 13.528L261.26 13.5285L262.062 14.125ZM257 20.9375L256.197 20.341L256.193 20.3468L257 20.9375ZM250.125 21.5L249.562 22.3262L249.562 22.3265L250.125 21.5ZM242.562 17.3125L242.125 18.2116L242.129 18.2138L242.562 17.3125ZM225.812 15.625L225.616 14.6444L225.613 14.6452L225.812 15.625ZM220.375 18.625L219.668 17.9179L220.375 18.625ZM219.75 30L218.978 30.6357L218.983 30.6414L218.987 30.647L219.75 30ZM223.625 33.125L223.178 34.0194L223.188 34.0247L223.199 34.0298L223.625 33.125ZM227.938 34.8125L228.246 33.8612L228.237 33.8585L227.938 34.8125ZM240 38.6875L239.697 39.6406L239.707 39.6438L240 38.6875ZM249.812 42.3125L250.223 41.4006L250.219 41.3987L249.812 42.3125ZM264.812 55.625L263.896 56.0246L263.9 56.0344L264.812 55.625ZM260.625 83.8125L261.339 84.5127L261.342 84.5093L260.625 83.8125ZM246.438 92.1875L246.204 91.2151L246.195 91.2174L246.438 92.1875ZM213.625 92L213.923 91.0453L213.915 91.0429L213.625 92ZM201.292 84.5156C200.079 83.5962 199.459 82.7676 199.235 82.0582C199.029 81.4053 199.116 80.7223 199.645 79.9297L197.98 78.8203C197.176 80.0277 196.909 81.3343 197.328 82.6605C197.729 83.9303 198.713 85.0705 200.083 86.1094L201.292 84.5156ZM199.646 79.928L204.458 72.678L202.792 71.572L197.979 78.822L199.646 79.928ZM204.457 72.6797C205.119 71.6865 205.833 71.29 206.601 71.2485C207.435 71.2034 208.549 71.5635 209.99 72.5698L211.135 70.9302C209.534 69.8115 207.971 69.1716 206.493 69.2515C204.948 69.335 203.714 70.1885 202.793 71.5703L204.457 72.6797ZM209.991 72.5706C212.387 74.2394 215.484 75.9543 219.265 77.7187L220.11 75.9063C216.391 74.1707 213.404 72.5106 211.134 70.9294L209.991 72.5706ZM219.277 77.7242C223.198 79.4909 227.317 80.375 231.625 80.375V78.375C227.6 78.375 223.761 77.5508 220.098 75.9008L219.277 77.7242ZM231.625 80.375C234.619 80.375 237.511 80.0328 240.302 79.346L239.823 77.404C237.197 78.0505 234.465 78.375 231.625 78.375V80.375ZM240.302 79.346C243.196 78.6336 245.476 77.2297 247.054 75.0944L245.446 73.9056C244.191 75.6036 242.346 76.7831 239.823 77.404L240.302 79.346ZM247.054 75.0944C248.611 72.9881 249.375 70.5036 249.375 67.6875H247.375C247.375 70.1214 246.722 72.1785 245.446 73.9056L247.054 75.0944ZM249.375 67.6875C249.375 65.7022 249.044 63.9141 248.352 62.3464L246.523 63.1536C247.081 64.4193 247.375 65.9228 247.375 67.6875H249.375ZM248.352 62.3464C247.642 60.7353 246.483 59.4231 244.918 58.4104L243.832 60.0896C245.1 60.9102 245.983 61.9314 246.523 63.1536L248.352 62.3464ZM244.918 58.4104C243.453 57.4625 241.942 56.6633 240.385 56.0144L239.615 57.8606C241.058 58.4617 242.463 59.2042 243.832 60.0896L244.918 58.4104ZM240.382 56.0131C237.7 54.9065 234.341 53.8308 230.315 52.7823L229.81 54.7177C233.784 55.7526 237.05 56.8018 239.618 57.8619L240.382 56.0131ZM230.326 52.7855C226.401 51.7112 222.517 50.4303 218.673 48.9424L217.952 50.8076C221.858 52.3197 225.807 53.6221 229.799 54.7145L230.326 52.7855ZM218.672 48.9419C215.312 47.6463 212.236 45.8658 209.443 43.5985L208.182 45.1515C211.139 47.5509 214.397 49.4371 217.953 50.8081L218.672 48.9419ZM209.443 43.5985C206.658 41.3382 204.518 38.8119 203.004 36.0229L201.246 36.9771C202.899 40.0215 205.217 42.7451 208.182 45.1515L209.443 43.5985ZM203.004 36.0229C201.529 33.3054 200.75 29.5934 200.75 24.8125H198.75C198.75 29.7816 199.555 33.8613 201.246 36.9771L203.004 36.0229ZM200.75 24.8125C200.75 19.259 202.539 14.5434 206.115 10.6102L204.635 9.26483C200.711 13.5816 198.75 18.7827 198.75 24.8125H200.75ZM206.115 10.6102C209.746 6.61645 213.887 4.08728 218.545 2.97254L218.08 1.02746C212.988 2.24605 208.504 5.00855 204.635 9.26483L206.115 10.6102ZM218.545 2.97254C223.345 1.82391 228.183 1.25 233.062 1.25V-0.75C228.025 -0.75 223.03 -0.157249 218.08 1.02746L218.545 2.97254ZM233.062 1.25C237.877 1.25 242.846 1.98423 247.973 3.46094L248.527 1.53906C243.238 0.01577 238.082 -0.75 233.062 -0.75V1.25ZM247.975 3.46152C253.158 4.94231 256.965 6.76739 259.48 8.88929L260.77 7.36071C257.951 4.98261 253.842 3.05769 248.525 1.53848L247.975 3.46152ZM259.481 8.89022C260.732 9.94242 261.387 10.8469 261.626 11.5885C261.843 12.2587 261.748 12.8726 261.26 13.528L262.865 14.722C263.71 13.5858 263.959 12.3038 263.53 10.974C263.123 9.71556 262.143 8.51591 260.769 7.35978L259.481 8.89022ZM261.26 13.5285L256.197 20.341L257.803 21.534L262.865 14.7215L261.26 13.5285ZM256.193 20.3468C255.463 21.3444 254.703 21.7672 253.918 21.8315C253.092 21.8991 252.029 21.587 250.688 20.6735L249.562 22.3265C251.096 23.3713 252.617 23.9447 254.082 23.8248C255.588 23.7015 256.829 22.8639 257.807 21.5282L256.193 20.3468ZM250.688 20.6738C248.796 19.3839 246.226 17.9633 242.996 16.4112L242.129 18.2138C245.316 19.7451 247.787 21.1161 249.562 22.3262L250.688 20.6738ZM243 16.4134C239.7 14.8066 236.238 14 232.625 14V16C235.929 16 239.092 16.7351 242.125 18.2116L243 16.4134ZM232.625 14C230.111 14 227.773 14.213 225.616 14.6444L226.009 16.6056C228.018 16.2037 230.223 16 232.625 16V14ZM225.613 14.6452C223.364 15.104 221.379 16.2067 219.668 17.9179L221.082 19.3321C222.538 17.8766 224.177 16.9793 226.012 16.6048L225.613 14.6452ZM219.668 17.9179C217.888 19.6974 217 21.9139 217 24.5H219C219 22.4194 219.695 20.7193 221.082 19.3321L219.668 17.9179ZM217 24.5C217 26.9278 217.633 29.0022 218.978 30.6357L220.522 29.3643C219.534 28.1645 219 26.5722 219 24.5H217ZM218.987 30.647C220.229 32.1107 221.625 33.2429 223.178 34.0194L224.072 32.2306C222.792 31.5904 221.604 30.6393 220.513 29.353L218.987 30.647ZM223.199 34.0298C224.656 34.7152 226.135 35.2943 227.638 35.7665L228.237 33.8585C226.823 33.414 225.428 32.8681 224.051 32.2202L223.199 34.0298ZM227.629 35.7638C232.131 37.2226 236.153 38.5149 239.697 39.6406L240.303 37.7344C236.763 36.6101 232.744 35.3191 228.246 33.8612L227.629 35.7638ZM239.707 39.6438C243.215 40.7167 246.448 41.9113 249.406 43.2263L250.219 41.3987C247.177 40.047 243.868 38.8249 240.293 37.7312L239.707 39.6438ZM249.402 43.2244C253.526 45.0804 256.62 46.91 258.728 48.6998L260.022 47.1752C257.713 45.215 254.432 43.2946 250.223 41.4006L249.402 43.2244ZM258.728 48.6998C260.797 50.4564 262.527 52.8837 263.896 56.0246L265.729 55.2254C264.265 51.8663 262.37 49.1686 260.022 47.1752L258.728 48.6998ZM263.9 56.0344C265.288 59.1265 266 62.8552 266 67.25H268C268 62.6448 267.254 58.6235 265.725 55.2156L263.9 56.0344ZM266 67.25C266 73.683 263.959 78.9455 259.908 83.1157L261.342 84.5093C265.791 79.9295 268 74.1504 268 67.25H266ZM259.911 83.1123C255.775 87.3299 251.206 90.0146 246.204 91.2151L246.671 93.1599C252.085 91.8604 256.975 88.9618 261.339 84.5127L259.911 83.1123ZM246.195 91.2174C241.101 92.4908 236.141 93.125 231.312 93.125V95.125C236.317 95.125 241.441 94.4675 246.68 93.1576L246.195 91.2174ZM231.312 93.125C224.116 93.125 218.332 92.4206 213.923 91.0454L213.327 92.9546C218.002 94.4128 224.009 95.125 231.312 95.125V93.125ZM213.915 91.0429C209.494 89.7047 205.287 87.5323 201.29 84.5145L200.085 86.1105C204.255 89.2593 208.672 91.5453 213.335 92.9571L213.915 91.0429ZM299.625 17.875V16.875H298.625V17.875H299.625ZM299.625 37.75H298.625V38.75H299.625V37.75ZM299.625 53.25V52.25H298.625V53.25H299.625ZM299.625 76.5H298.625V77.5H299.625V76.5ZM285.75 91C284.464 91 283.679 90.6588 283.2 90.1458C282.709 89.6198 282.375 88.7374 282.375 87.3125H280.375C280.375 89.0126 280.77 90.474 281.738 91.5104C282.717 92.5599 284.119 93 285.75 93V91ZM282.375 87.3125V7.0625H280.375V87.3125H282.375ZM282.375 7.0625C282.375 5.63765 282.709 4.75522 283.2 4.22919C283.679 3.71616 284.464 3.375 285.75 3.375V1.375C284.119 1.375 282.717 1.81509 281.738 2.86456C280.77 3.90103 280.375 5.36235 280.375 7.0625H282.375ZM285.75 3.375H339.375V1.375H285.75V3.375ZM339.375 3.375C340.816 3.375 341.709 3.69022 342.236 4.14631C342.735 4.5787 343.062 5.27773 343.062 6.4375H345.062C345.062 4.88894 344.609 3.55672 343.546 2.63494C342.509 1.73687 341.059 1.375 339.375 1.375V3.375ZM343.062 6.4375V13.8125H345.062V6.4375H343.062ZM343.062 13.8125C343.062 14.9723 342.735 15.6713 342.236 16.1037C341.709 16.5598 340.816 16.875 339.375 16.875V18.875C341.059 18.875 342.509 18.5131 343.546 17.6151C344.609 16.6933 345.062 15.3611 345.062 13.8125H343.062ZM339.375 16.875H299.625V18.875H339.375V16.875ZM298.625 17.875V37.75H300.625V17.875H298.625ZM299.625 38.75H336.062V36.75H299.625V38.75ZM336.062 38.75C337.503 38.75 338.397 39.0652 338.923 39.5213C339.422 39.9537 339.75 40.6527 339.75 41.8125H341.75C341.75 40.2639 341.297 38.9317 340.233 38.0099C339.197 37.1119 337.747 36.75 336.062 36.75V38.75ZM339.75 41.8125V49.1875H341.75V41.8125H339.75ZM339.75 49.1875C339.75 50.3473 339.422 51.0463 338.923 51.4787C338.397 51.9348 337.503 52.25 336.062 52.25V54.25C337.747 54.25 339.197 53.8881 340.233 52.9901C341.297 52.0683 341.75 50.7361 341.75 49.1875H339.75ZM336.062 52.25H299.625V54.25H336.062V52.25ZM298.625 53.25V76.5H300.625V53.25H298.625ZM299.625 77.5H341.375V75.5H299.625V77.5ZM341.375 77.5C342.816 77.5 343.709 77.8152 344.236 78.2713C344.735 78.7037 345.062 79.4027 345.062 80.5625H347.062C347.062 79.0139 346.609 77.6817 345.546 76.7599C344.509 75.8619 343.059 75.5 341.375 75.5V77.5ZM345.062 80.5625V87.9375H347.062V80.5625H345.062ZM345.062 87.9375C345.062 89.0973 344.735 89.7963 344.236 90.2287C343.709 90.6848 342.816 91 341.375 91V93C343.059 93 344.509 92.6381 345.546 91.7401C346.609 90.8183 347.062 89.4861 347.062 87.9375H345.062ZM341.375 91H285.75V93H341.375V91Z" fill="white" fill-opacity="0.12"/>
</svg>
