<svg width="1845" height="1010" viewBox="0 0 1845 1010" fill="none" xmlns="http://www.w3.org/2000/svg">
<mask id="mask0_301_85" style="mask-type:alpha" maskUnits="userSpaceOnUse" x="0" y="14" width="1840" height="743">
<mask id="mask1_301_85" style="mask-type:alpha" maskUnits="userSpaceOnUse" x="0" y="117" width="1540" height="893">
<rect y="117.999" width="1540" height="892" fill="#151851"/>
</mask>
<g mask="url(#mask1_301_85)">
<path d="M364.995 473.983C384.656 454.806 440.461 418.68 506.394 427.592C572.328 436.504 627.315 400.647 646.567 381.604" stroke="white" stroke-opacity="0.31"/>
<path d="M646.577 381.634C666.238 362.457 722.043 326.331 787.976 335.243C853.91 344.155 907.748 310.041 927 290.998" stroke="white" stroke-opacity="0.31"/>
<path d="M926.995 290.983C946.656 271.806 1002.46 235.68 1068.39 244.592C1134.33 253.504 1194.75 219.041 1214 199.999" stroke="white" stroke-opacity="0.31"/>
<path d="M-197.005 657.983C-177.344 638.806 -121.539 602.68 -55.6056 611.592C10.3281 620.504 65.3155 584.647 84.5675 565.604" stroke="white" stroke-opacity="0.31"/>
<path d="M84.5775 565.634C104.238 546.457 160.043 510.331 225.977 519.243C291.91 528.155 346.898 492.297 366.15 473.254" stroke="white" stroke-opacity="0.31"/>
<path d="M908.995 352.511C929.991 332.896 989.276 295.628 1058.45 303.477C1127.63 311.325 1186.05 274.341 1206.61 254.868" stroke="white" stroke-opacity="0.31"/>
<path d="M1206.62 254.897C1227.62 235.282 1286.9 198.015 1356.08 205.863C1425.25 213.712 1481.94 176.472 1502.5 156.999" stroke="white" stroke-opacity="0.31"/>
<path d="M374.995 514.983C394.656 495.806 450.461 459.68 516.394 468.592C582.328 477.504 637.315 441.647 656.567 422.604" stroke="white" stroke-opacity="0.31"/>
<path d="M656.577 422.634C676.238 403.457 732.043 367.331 797.976 376.243C863.91 385.155 889.748 371.541 909 352.498" stroke="white" stroke-opacity="0.31"/>
<path d="M-187.005 698.983C-167.344 679.806 -111.539 643.68 -45.6056 652.592C20.3281 661.504 75.3155 625.647 94.5675 606.604" stroke="white" stroke-opacity="0.31"/>
<path d="M94.5775 606.633C114.238 587.457 170.043 551.331 235.977 560.243C301.91 569.155 356.898 533.297 376.15 514.254" stroke="white" stroke-opacity="0.31"/>
<path d="M952.995 392.511C973.991 372.896 1033.28 335.628 1102.45 343.476C1171.63 351.325 1223.44 315.472 1244 295.999" stroke="white" stroke-opacity="0.31"/>
<path d="M367.995 571.983C387.656 552.806 443.461 516.68 509.394 525.592C575.328 534.504 630.315 498.647 649.567 479.604" stroke="white" stroke-opacity="0.31"/>
<path d="M649.577 479.633C669.238 460.456 725.043 424.331 790.976 433.243C856.91 442.155 933.748 411.541 953 392.499" stroke="white" stroke-opacity="0.31"/>
<path d="M-194.005 755.983C-174.344 736.806 -118.539 700.68 -52.6056 709.592C13.3281 718.504 68.3155 682.646 87.5675 663.604" stroke="white" stroke-opacity="0.31"/>
<path d="M87.5775 663.633C107.238 644.456 163.043 608.331 228.977 617.243C294.91 626.155 349.898 590.297 369.15 571.254" stroke="white" stroke-opacity="0.31"/>
</g>
<path d="M1213.96 199.985C1233.62 180.808 1289.43 144.682 1355.36 153.594C1421.29 162.506 1476.28 126.648 1495.53 107.605" stroke="white" stroke-opacity="0.31"/>
<path d="M1495.54 107.635C1515.2 88.4581 1571.01 52.3322 1636.94 61.2442C1702.87 70.1563 1757.86 34.2986 1777.11 15.2557" stroke="white" stroke-opacity="0.31"/>
<path d="M1501.62 157.795C1522.62 138.18 1581.9 100.912 1651.08 108.761C1720.25 116.609 1778.67 79.6249 1799.24 60.1517" stroke="white" stroke-opacity="0.31"/>
<path d="M1244 296.408C1264.99 276.793 1324.28 239.525 1393.45 247.374C1462.63 255.223 1521.05 218.238 1541.61 198.765" stroke="white" stroke-opacity="0.31"/>
<path d="M1541.62 198.795C1562.62 179.18 1621.9 141.912 1691.08 149.761C1760.25 157.609 1818.67 120.625 1839.24 101.152" stroke="white" stroke-opacity="0.31"/>
</mask>
<g mask="url(#mask0_301_85)">
<rect width="1772" height="814" fill="#BABABA"/>
</g>
</svg>
