<svg width="97" height="97" viewBox="0 0 97 97" fill="none" xmlns="http://www.w3.org/2000/svg">
<mask id="mask0_77_45" style="mask-type:alpha" maskUnits="userSpaceOnUse" x="0" y="0" width="97" height="97">
<circle cx="48.5" cy="48.5" r="48.5" fill="#D9D9D9"/>
</mask>
<g mask="url(#mask0_77_45)">
<path d="M-21 44.4274C-14.9968 38.094 1.47583 29.2274 19.3412 44.4274C37.2066 59.6274 50.7978 50.7607 55.3602 44.4274" stroke="white" stroke-opacity="0.42"/>
<path d="M54.6399 45.32C60.6431 38.9866 77.1157 30.12 94.9811 45.32C112.847 60.52 126.438 51.6533 131 45.32" stroke="white" stroke-opacity="0.42"/>
<path d="M-21 58.1056C-14.9968 51.7723 1.47583 42.9056 19.3412 58.1056C37.2066 73.3056 50.7978 64.4389 55.3602 58.1056" stroke="white" stroke-opacity="0.42"/>
<path d="M54.6399 58.9982C60.6431 52.6648 77.1157 43.7982 94.9811 58.9982C112.847 74.1982 126.438 65.3315 131 58.9982" stroke="white" stroke-opacity="0.42"/>
<path d="M-21 71.7838C-14.9968 65.4505 1.47583 56.5838 19.3412 71.7838C37.2066 86.9838 50.7978 78.1172 55.3602 71.7838" stroke="white" stroke-opacity="0.42"/>
<path d="M54.6399 72.6764C60.6431 66.3431 77.1157 57.4764 94.9811 72.6764C112.847 87.8764 126.438 79.0097 131 72.6764" stroke="white" stroke-opacity="0.42"/>
<path d="M-21 85.462C-14.9968 79.1287 1.47583 70.262 19.3412 85.462C37.2066 100.662 50.7978 91.7954 55.3602 85.462" stroke="white" stroke-opacity="0.42"/>
<path d="M54.6399 86.3546C60.6431 80.0213 77.1157 71.1546 94.9811 86.3546C112.847 101.555 126.438 92.688 131 86.3546" stroke="white" stroke-opacity="0.42"/>
<path d="M-21 3.39271C-14.9968 -2.94063 1.47583 -11.8073 19.3412 3.39271C37.2066 18.5927 50.7978 9.72604 55.3602 3.39271" stroke="white" stroke-opacity="0.42"/>
<path d="M54.6399 4.28528C60.6431 -2.04805 77.1157 -10.9147 94.9811 4.28528C112.847 19.4853 126.438 10.6186 131 4.28528" stroke="white" stroke-opacity="0.42"/>
<path d="M-21 17.0709C-14.9968 10.7376 1.47583 1.87093 19.3412 17.0709C37.2066 32.2709 50.7978 23.4043 55.3602 17.0709" stroke="white" stroke-opacity="0.42"/>
<path d="M54.6399 17.9635C60.6431 11.6302 77.1157 2.76351 94.9811 17.9635C112.847 33.1635 126.438 24.2968 131 17.9635" stroke="white" stroke-opacity="0.42"/>
<path d="M-21 30.7492C-14.9968 24.4158 1.47583 15.5492 19.3412 30.7492C37.2066 45.9492 50.7978 37.0825 55.3602 30.7492" stroke="white" stroke-opacity="0.42"/>
<path d="M54.6399 31.6417C60.6431 25.3084 77.1157 16.4417 94.9811 31.6417C112.847 46.8417 126.438 37.9751 131 31.6417" stroke="white" stroke-opacity="0.42"/>
</g>
</svg>
